# xmcd
#
# Track frame offsets: 
#        187
#        24030
#        39177
#        56045
#        72667
#        98097
#        116262
#        137235
#        160305
#        179107
#        197607
#        219540
#        238720
#
# Disc length: 3482 seconds
#
# Revision: 3
# Processed by: cddbd v1.5.2PL0 Copyright (c) Steve Scherf et al.
# Submitted via: ExactAudioCopy v0.99pb4
#
DISCID=b60d980d
DTITLE=UFO - High Stakes and Dangerous Men (VICP-5150)
DYEAR=1992
DGENRE=Hard Rock
TTITLE0=Borderline
TTITLE1=Primed For Time
TTITLE2=She's The One
TTITLE3=Ain't Life Sweet
TTITLE4=Don't Want To Lose You
TTITLE5=Burnin' Fire
TTITLE6=Running Up The Highway
TTITLE7=Back Door Man
TTITLE8=One Of Those Nights
TTITLE9=Revolution
TTITLE10=Love Deadly Love
TTITLE11=Let The Good Time Roll
TTITLE12=Long Gone (Bonus Track For Japan)
EXTD=YEAR: 1992
EXTT0=
EXTT1=
EXTT2=
EXTT3=
EXTT4=
EXTT5=
EXTT6=
EXTT7=
EXTT8=
EXTT9=
EXTT10=
EXTT11=
EXTT12=
PLAYORDER=
